<?xml version="1.0" encoding="UTF-8" standalone="no"?>
<!DOCTYPE svg PUBLIC "-//W3C//DTD SVG 1.1//EN" "http://www.w3.org/Graphics/SVG/1.1/DTD/svg11.dtd">
<svg width="100%" height="100%" viewBox="0 0 75 28" version="1.1" xmlns="http://www.w3.org/2000/svg" xmlns:xlink="http://www.w3.org/1999/xlink" xml:space="preserve" xmlns:serif="http://www.serif.com/" style="fill-rule:evenodd;clip-rule:evenodd;stroke-linejoin:round;stroke-miterlimit:2;">
    <g transform="matrix(0.263852,0,0,0.263852,22.4908,26.0756)">
        <g>
            <g transform="matrix(1,0,0,1,-84.375,6.174)">
                <g transform="matrix(140,0,0,140,0,0)">
                    <path d="M0.217,-0.369L0.577,-0.369L0.56,-0.283L0.199,-0.283L0.217,-0.369ZM0.152,-0L0.052,-0L0.192,-0.7L0.686,-0.7L0.669,-0.613L0.274,-0.613L0.152,-0Z" style="fill:white;fill-rule:nonzero;"/>
                </g>
            </g>
            <g transform="matrix(1,0,0,1,2.145,6.174)">
                <g transform="matrix(140,0,0,140,0,0)">
                    <path d="M0.264,0.006C0.219,0.006 0.181,-0.003 0.15,-0.022C0.119,-0.041 0.097,-0.068 0.084,-0.104C0.071,-0.139 0.07,-0.182 0.08,-0.233L0.139,-0.53L0.235,-0.53L0.176,-0.232C0.167,-0.185 0.171,-0.148 0.191,-0.121C0.21,-0.093 0.243,-0.08 0.292,-0.08C0.342,-0.08 0.384,-0.094 0.418,-0.122C0.452,-0.15 0.475,-0.192 0.486,-0.249L0.542,-0.53L0.638,-0.53L0.533,-0L0.441,-0L0.471,-0.152L0.488,-0.111C0.463,-0.071 0.432,-0.042 0.393,-0.023C0.354,-0.003 0.311,0.006 0.264,0.006ZM0.507,-0.624C0.494,-0.624 0.482,-0.628 0.473,-0.637C0.464,-0.646 0.459,-0.657 0.459,-0.67C0.459,-0.687 0.464,-0.7 0.476,-0.711C0.487,-0.722 0.499,-0.727 0.514,-0.727C0.527,-0.727 0.539,-0.723 0.548,-0.714C0.557,-0.705 0.562,-0.694 0.562,-0.68C0.562,-0.663 0.557,-0.65 0.546,-0.64C0.535,-0.629 0.522,-0.624 0.507,-0.624ZM0.322,-0.624C0.309,-0.624 0.297,-0.628 0.288,-0.637C0.279,-0.646 0.274,-0.657 0.274,-0.67C0.274,-0.687 0.279,-0.7 0.29,-0.711C0.301,-0.722 0.313,-0.727 0.328,-0.727C0.342,-0.727 0.354,-0.723 0.363,-0.714C0.372,-0.705 0.376,-0.694 0.376,-0.68C0.376,-0.663 0.371,-0.65 0.36,-0.64C0.349,-0.629 0.336,-0.624 0.322,-0.624Z" style="fill:white;fill-rule:nonzero;"/>
                </g>
                <g transform="matrix(140,0,0,140,94.78,0)">
                    <path d="M0.217,-0.369L0.577,-0.369L0.56,-0.283L0.199,-0.283L0.217,-0.369ZM0.152,-0L0.052,-0L0.192,-0.7L0.686,-0.7L0.669,-0.613L0.274,-0.613L0.152,-0Z" style="fill:white;fill-rule:nonzero;"/>
                </g>
            </g>
        </g>
    </g>
</svg>
